<svg width="498" height="114" viewBox="0 0 498 114" fill="none" xmlns="http://www.w3.org/2000/svg">
<path d="M467.757 31.6594C465.802 29.4446 463.262 27.4252 460.135 25.6012C457.008 23.6469 453.035 22.6697 448.214 22.6697C444.827 22.6697 441.895 23.256 439.42 24.4286C436.944 25.6011 435.706 27.2949 435.706 29.5097C435.706 30.4217 436.097 31.3337 436.879 32.2457C437.791 33.1577 440.006 33.9394 443.524 34.5909L464.239 38.8903C476.356 41.3657 484.824 45.6651 489.645 51.7886C494.596 57.912 497.071 64.752 497.071 72.3086C497.071 79.8652 494.986 86.2492 490.817 91.4606C486.648 96.672 480.85 100.646 473.424 103.382C465.998 106.118 457.399 107.486 447.628 107.486C435.12 107.486 424.697 105.401 416.359 101.232C408.021 97.0629 402.223 92.0469 398.966 86.184C398.315 85.0114 397.989 83.904 397.989 82.8617C397.989 81.8194 398.445 81.0377 399.357 80.5166L416.359 71.9177C418.053 71.136 419.29 70.8103 420.072 70.9406C420.984 71.0709 421.766 71.5269 422.417 72.3086C423.981 74.0023 425.674 75.7612 427.498 77.5852C429.453 79.2789 431.993 80.712 435.12 81.8846C438.377 83.0572 442.612 83.5783 447.823 83.448C450.559 83.3177 453.034 83.0572 455.249 82.6663C457.464 82.1452 459.223 81.3634 460.526 80.3211C461.829 79.2789 462.48 77.976 462.48 76.4126C462.48 75.1097 461.894 73.9372 460.721 72.8949C459.679 71.8526 457.269 71.0057 453.49 70.3543L433.557 66.8366C423.655 65.0126 415.903 61.6252 410.301 56.6743C404.698 51.5932 401.832 44.6229 401.702 35.7634C401.702 28.9886 403.461 22.9303 406.978 17.5886C410.626 12.1166 415.968 7.81715 423.004 4.69029C430.039 1.56343 438.573 0 448.605 0C459.288 0 468.343 1.95428 475.769 5.86285C483.326 9.64114 488.537 13.9406 491.404 18.7611C492.055 19.6731 492.576 20.7154 492.967 21.888C493.358 23.0606 492.837 23.9726 491.404 24.624L473.424 33.2229C472.252 33.744 471.209 33.8743 470.297 33.6137C469.385 33.2229 468.538 32.5714 467.757 31.6594Z" fill="white"/>
<path d="M344.913 80.1256C347.909 80.1256 350.645 79.3439 353.121 77.7805C355.726 76.2171 357.876 74.3279 359.57 72.1131V7.62164C359.57 3.84335 361.72 1.95421 366.019 1.95421H393.965C397.353 1.95421 399.046 3.64792 399.046 7.03536L398.265 101.232C398.265 104.098 397.027 105.531 394.552 105.531H363.674C361.329 105.531 360.156 104.229 360.156 101.623V93.0239C360.156 92.2422 359.896 91.7862 359.374 91.6559C358.984 91.3954 358.462 91.5908 357.811 92.2422C353.381 97.4536 348.496 101.297 343.154 103.773C337.812 106.248 331.884 107.486 325.37 107.486C319.768 107.486 314.752 106.248 310.322 103.773C306.022 101.167 302.57 97.4536 299.964 92.6331C297.489 87.6822 296.251 81.7542 296.251 74.8491V7.81708C296.251 3.9085 298.27 1.95421 302.309 1.95421H330.842C333.838 1.95421 335.337 3.64792 335.337 7.03536V70.5496C335.337 73.5462 336.184 75.8914 337.877 77.5851C339.701 79.2788 342.046 80.1256 344.913 80.1256Z" fill="white"/>
<path d="M142.76 64.1006C142.76 68.0091 143.606 71.2663 145.3 73.872C147.124 76.4777 149.534 78.432 152.531 79.7349C155.658 81.0377 159.11 81.6892 162.889 81.6892C166.276 81.6892 169.598 80.9074 172.856 79.344C176.113 77.7806 179.891 74.9143 184.19 70.7452C184.712 70.224 185.168 69.9634 185.558 69.9634C186.08 69.8332 186.992 70.0286 188.294 70.5497L206.078 77.7806C208.424 78.6926 208.684 80.256 206.86 82.4709C202.17 88.9852 197.414 94.0663 192.594 97.7143C187.904 101.362 182.692 103.903 176.96 105.336C171.357 106.769 164.908 107.486 157.612 107.486C147.189 107.486 137.809 105.271 129.47 100.841C121.132 96.4114 114.553 90.288 109.732 82.4709C104.912 74.6537 102.501 65.664 102.501 55.5017C102.501 44.4274 104.977 34.7211 109.928 26.3829C115.009 18.0446 121.653 11.5954 129.861 7.03543C138.2 2.34514 147.189 0 156.83 0C167.123 0 176.243 2.21486 184.19 6.64457C192.138 11.0743 198.392 17.4583 202.952 25.7966C207.642 34.0046 209.987 44.0366 209.987 55.8926C209.987 57.5863 209.792 58.824 209.401 59.6057C209.14 60.2572 208.163 60.648 206.469 60.7783H145.691C144.779 60.7783 144.062 61.0389 143.541 61.56C143.02 62.0812 142.76 62.928 142.76 64.1006ZM168.752 40.6491C170.054 40.6491 170.901 40.5189 171.292 40.2583C171.813 39.8674 172.074 39.0857 172.074 37.9131C172.074 36.2194 171.618 34.2 170.706 31.8549C169.794 29.5097 168.361 27.4252 166.406 25.6012C164.452 23.7772 161.846 22.8651 158.589 22.8651C155.984 22.8651 153.443 23.5166 150.968 24.8194C148.622 25.992 146.733 27.8812 145.3 30.4869C143.997 33.0926 143.346 36.4149 143.346 40.4537L168.752 40.6491Z" fill="white"/>
<path d="M5.08114 105.531C1.69371 105.531 0 103.903 0 100.646V6.44914C0 3.45257 1.23771 1.95428 3.71314 1.95428H35.1771C37.5223 1.95428 38.6949 3.25714 38.6949 5.86285V14.6571C38.6949 15.4389 38.8903 15.96 39.2811 16.2206C39.8023 16.4811 40.4537 16.2206 41.2354 15.4389C43.9714 12.4423 46.968 9.77143 50.2251 7.42629C53.4823 5.08115 56.9349 3.25714 60.5828 1.95428C64.3611 0.651428 68.2697 0 72.3086 0C81.4286 0 88.7897 2.86629 94.392 8.59886C100.125 14.3314 102.991 22.0183 102.991 31.6594V99.6686C102.991 103.577 101.037 105.531 97.128 105.531H68.4C66.7063 105.531 65.5337 105.206 64.8823 104.554C64.2309 103.773 63.9051 102.47 63.9051 100.646V36.936C63.9051 33.9394 62.928 31.6594 60.9737 30.096C59.1497 28.4023 56.6743 27.5554 53.5474 27.5554C51.5931 27.5554 49.704 27.9463 47.88 28.728C46.1863 29.3794 44.6229 30.4217 43.1897 31.8549C41.7566 33.288 40.3886 35.112 39.0857 37.3269V99.864C39.0857 103.642 36.936 105.531 32.6366 105.531H5.08114Z" fill="white"/>
<path d="M209.394 114C207.659 114 206.04 113.611 204.536 112.833C203.033 112.133 201.818 111.005 200.893 109.449C200.026 107.816 199.592 105.677 199.592 103.032C199.592 101.165 199.881 99.3368 200.459 97.5476C201.038 95.6807 201.934 93.8526 203.148 92.0635C204.189 90.4299 205.751 88.4074 207.832 85.9959C209.914 83.5067 212.285 80.9007 214.945 78.1781C217.605 75.4555 220.323 72.8495 223.098 70.3603C225.469 68.1044 227.696 65.9652 229.777 63.9427C231.917 61.8424 233.652 59.9754 234.982 58.3419C236.37 56.6305 237.064 55.2692 237.064 54.2579C237.064 53.3245 236.312 52.0798 234.808 50.5241C233.305 48.8905 231.397 47.1013 229.084 45.1566C226.77 43.1341 224.342 41.1116 221.797 39.0891C218.848 36.911 216.044 34.4995 213.384 31.8547C210.724 29.2098 208.411 26.6817 206.444 24.2702C205.114 22.6366 204.016 20.8475 203.148 18.9028C202.339 16.8802 201.934 14.6633 201.934 12.2518C201.934 9.91812 202.426 7.85671 203.409 6.06756C204.392 4.20062 205.693 2.72262 207.312 1.63357C208.989 0.544522 210.81 0 212.776 0C214.28 0 215.755 0.427837 217.2 1.28352C218.646 2.06141 220.092 3.15046 221.537 4.55067C223.908 6.80655 226.395 9.64586 228.997 13.0686C231.657 16.4913 234.114 20.1474 236.37 24.0368C239.608 29.0931 242.326 33.1771 244.523 36.2886C246.778 39.4002 248.398 40.956 249.381 40.956C250.075 40.956 251.058 40.1781 252.33 38.6223C253.66 37.0665 255.134 35.0829 256.753 32.6714C258.373 30.1822 260.021 27.5763 261.698 24.8536C264.3 20.653 266.555 17.2692 268.463 14.7022C270.372 12.0573 272.309 9.60696 274.275 7.35108C275.952 5.40635 277.802 3.73388 279.826 2.33368C281.908 0.933472 283.874 0.233369 285.725 0.233369C288.558 0.233369 290.784 1.24462 292.403 3.26714C294.08 5.21187 294.919 7.9345 294.919 11.435C294.919 14.1576 294.427 16.8025 293.444 19.3695C292.461 21.8587 291.016 24.2313 289.107 26.4872C287.604 28.4319 285.753 30.5322 283.556 32.7881C281.359 34.9662 278.843 37.261 276.01 39.6725C272.251 43.173 269.389 45.8178 267.422 47.607C265.514 49.3961 264.213 50.7574 263.519 51.6909C262.883 52.5466 262.565 53.48 262.565 54.4913C262.565 55.5026 263.837 57.0583 266.382 59.1587C268.926 61.259 272.945 64.6817 278.438 69.4268C280.694 71.3716 282.862 73.4719 284.944 75.7277C287.026 77.9058 288.934 80.0062 290.669 82.0287C292.403 83.9734 293.733 85.607 294.659 86.9294C296.393 89.1075 297.666 91.2856 298.475 93.4637C299.285 95.6418 299.69 97.8977 299.69 100.231C299.69 102.254 299.372 104.004 298.735 105.482C298.157 106.882 297.319 108.049 296.22 108.983C295.179 109.838 294.023 110.461 292.75 110.85C291.536 111.238 290.293 111.433 289.021 111.433C287.286 111.433 285.58 110.966 283.903 110.033C282.284 109.099 280.549 107.582 278.699 105.482C276.906 103.46 274.737 100.776 272.193 97.4309C269.707 94.0082 266.671 89.5742 263.085 84.129C259.327 78.8393 256.407 74.7165 254.325 71.7605C252.301 68.8045 250.74 67.3265 249.641 67.3265C248.947 67.3265 248.166 67.7932 247.299 68.7267C246.431 69.5824 245.13 71.3715 243.396 74.0942C241.719 76.739 239.232 80.7452 235.936 86.1126C234.086 89.2242 232.09 92.3746 229.951 95.564C227.869 98.6755 225.903 101.437 224.053 103.849C222.202 106.26 220.641 108.088 219.369 109.333C217.923 110.655 216.362 111.744 214.685 112.6C213.008 113.533 211.244 114 209.394 114Z" fill="white"/>
</svg>
